<?xml version="1.0" encoding="utf-8"?>
<!-- Generator: Adobe Illustrator 26.4.1, SVG Export Plug-In . SVG Version: 6.00 Build 0)  -->
<svg version="1.1" id="Layer_1" xmlns="http://www.w3.org/2000/svg" xmlns:xlink="http://www.w3.org/1999/xlink" x="0px" y="0px"
	 viewBox="0 0 26 26" style="enable-background:new 0 0 26 26;" xml:space="preserve">
<path d="M18.4,6.1c-1.1,0.1-2-0.8-1.9-1.9c0.1-0.8,0.7-1.5,1.5-1.5c1.1-0.1,2,0.8,1.9,1.9C19.9,5.4,19.2,6,18.4,6.1z M21,0h-6.7
	c-0.2,0-0.4,0.1-0.6,0.2L0.5,13.6c-0.6,0.6-0.6,1.6,0,2.2l6.3,6.4c0.6,0.6,1.5,0.9,2.5,0.1L22.3,9.2c0.1-0.1,0.2-0.3,0.2-0.6v-7
	C22.6,0.7,21.9,0,21,0z"/>
<path d="M24.3,3.4v6.4c0,0.2-0.1,0.4-0.3,0.6L5.8,25l0.6,0.5c0.8,0.6,2,0.6,2.8,0l16.5-13.4c0.2-0.1,0.3-0.3,0.3-0.6V4.9
	C26,4.2,25.3,3.5,24.3,3.4z"/>
</svg>
