<svg class="tti-logo" xmlns="http://www.w3.org/2000/svg" width="602.306" height="116.328" viewBox="0 0 159.36 30.778">
  <path d="M69.15.082h1.14l-47.892 30.4H0zM48.464 18.44l21.771-.006L68.11 30.48H33.044zm11.682-9.07l11.852.003-1.317 6.4-18.878-.006zm7.101-5.498l5.62.004-.612 3.52h-9.559zm4.885-3.79h1.349l-.442 2.46-4.297.006z" fill="#500000"/>
  <path d="M80.97 9.118l-2.337.002 1.434-7.653-2.325.001.265-1.412 6.986-.005-.265 1.413-2.324.002z"/>
  <path d="M85.026 5.161c.096-.372.401-1.656 1.467-1.657.95 0 .815 1.065.703 1.656zm1.84 1.9c-.048.193-.145.642-.47.936-.2.18-.507.31-.829.31-1.13 0-.928-1.284-.732-2.26l4.237-.002c.074-.322.19-.81.19-1.426.003-.834-.178-1.515-1.223-1.9a4.217 4.217 0 00-1.338-.191c-3.3.002-3.805 2.622-3.965 3.483-.094.5-.34 1.81.376 2.58.376.398 1.104.693 2.235.692.525 0 1.515-.078 2.275-.503.936-.54 1.16-1.323 1.273-1.721zm8.488 2.048l-2.234.001-.708-1.977-1.526 1.98h-2.003l2.707-3.276-1.287-3.145 2.183-.001.609 1.758 1.28-1.76H96.3l-2.414 3.018zm4.868-2.199c-.058.308-.147.72-.524 1.015-.315.244-.678.256-.832.256-.359.001-.656-.127-.713-.576a1.56 1.56 0 01.029-.424c.126-.68.629-.963 1.151-1.08.257-.064.426-.077 1.065-.13zm.332-1.773l-1.033.104c-1.155.13-1.842.232-2.39.554a2.221 2.221 0 00-1.074 1.554c-.118.63-.015 1.105.19 1.387.272.398.796.539 1.324.538 1.272 0 2.037-.67 2.3-.9-.143.693.079.744.569.731l1.709-.001.014-.077c-.078-.064-.143-.128-.143-.398-.007-.244.036-.476.102-.822l.577-3.082c.094-.5.236-1.194-.238-1.682-.246-.257-.636-.372-1.023-.436a6.933 6.933 0 00-1.151-.088c-1.155 0-2.478.207-3.148 1.106-.29.386-.351.783-.407 1.079l1.99-.002c.062-.257.142-.616.396-.873.128-.142.41-.347.86-.348.116 0 .54 0 .69.359.078.206.04.475-.018.783zm4.974 1.345c-.465-.128-.98-.256-1.312-.603-.376-.397-.384-.898-.313-1.283.068-.36.2-.72.44-1.04.659-.848 1.723-1.042 2.647-1.042.373 0 .74.025 1.088.089.309.064.613.153.849.333.597.45.477 1.091.412 1.502l-1.805-.024c.067-.296.17-.977-.691-.976-.552 0-.933.322-1.006.707-.099.527.389.668.936.834l.491.116c.49.127 1.005.256 1.33.576.447.423.455 1.002.376 1.425-.068.36-.212.72-.44 1.04-.602.823-1.572 1.131-2.856 1.133-.386 0-.766-.025-1.137-.103a2.018 2.018 0 01-.863-.333c-.686-.513-.482-1.335-.408-1.656l1.906.038c-.036.192-.118.565.088.834.13.128.362.256.747.256.669 0 .972-.385 1.044-.771.116-.616-.362-.744-.886-.885zM78.957 19.87l-2.338.002 1.435-7.654-2.325.002.264-1.413 6.986-.005-.265 1.412-2.324.002z"/>
  <path d="M82.709 19.867l-2.081.001 1.204-6.421 2.08-.001-.214 1.143c.166-.27.311-.501.632-.771.378-.309.808-.476 1.206-.476.245 0 .363.051.517.116l-.318 1.694c-.183-.115-.483-.294-.895-.294-.09 0-.31.013-.588.128-.674.31-.79.861-.865 1.26zm6.693-2.201c-.058.308-.148.72-.523 1.015-.316.245-.678.257-.832.257-.36 0-.657-.128-.714-.577-.012-.14.002-.283.028-.424.128-.68.63-.963 1.153-1.079.256-.064.425-.077 1.064-.13zm.332-1.771l-1.033.103c-1.154.128-1.841.232-2.39.553a2.226 2.226 0 00-1.074 1.555c-.118.63-.014 1.104.19 1.387.272.397.798.538 1.324.537a3.376 3.376 0 002.3-.9c-.142.694.078.745.57.732l1.707-.001.015-.077c-.078-.065-.143-.13-.144-.399-.006-.244.038-.475.103-.822l.577-3.082c.093-.5.236-1.194-.237-1.682-.248-.256-.637-.371-1.022-.435a6.927 6.927 0 00-1.153-.089c-1.155 0-2.478.207-3.147 1.106-.291.385-.352.784-.407 1.079l1.99-.001c.06-.257.14-.617.394-.874.13-.141.411-.347.861-.347.116 0 .54 0 .69.359.078.206.04.476-.018.783zm8.786 3.961h-2.068l.733-3.916c.048-.257.087-.462.103-.68.025-.206.086-.874-.71-.872-.206 0-.395.05-.52.102-.586.245-.68.681-.758 1.028l-.813 4.34-2.067.001 1.202-6.42 2.067-.001-.137.732c.54-.412 1.28-.862 2.306-.863.86 0 1.222.334 1.364.538.326.45.215 1.04.141 1.503zm3.675-2.622c-.465-.129-.98-.256-1.312-.603-.376-.397-.385-.899-.313-1.284.067-.36.2-.72.44-1.04.658-.848 1.722-1.041 2.647-1.042.373 0 .74.025 1.088.089.308.064.612.154.849.334.595.449.476 1.09.411 1.502l-1.805-.025c.068-.295.17-.976-.69-.976-.553.001-.934.322-1.006.707-.099.527.388.668.935.835l.492.115c.49.128 1.005.255 1.33.576.447.425.454 1.002.375 1.426a2.661 2.661 0 01-.438 1.04c-.604.822-1.573 1.131-2.858 1.132-.385 0-.766-.025-1.136-.102a2.021 2.021 0 01-.862-.333c-.688-.514-.482-1.335-.409-1.656l1.906.036c-.036.193-.118.566.087.835.131.129.363.257.749.256.668 0 .97-.385 1.043-.77.115-.617-.362-.745-.886-.886zm6.917-1.289c.09-.411.19-.809.426-1.105.214-.256.574-.462.972-.463.796 0 .81.744.81.95.01.437-.101 1.091-.144 1.323-.31 1.656-.73 1.977-1.108 2.145-.14.064-.302.103-.481.103-.656 0-.922-.565-.787-1.284zm-3.28 6.55h2.066l.622-3.314c.185.307.505.796 1.583.795.296 0 .74-.04 1.186-.233 1.3-.565 1.743-1.824 1.99-3.146.239-1.272.193-1.927.024-2.324-.352-.86-1.191-.975-1.692-.975-.462 0-.946.117-1.385.334-.38.181-.571.373-.776.579l.147-.783-2.068.002zm12.33-5.992c-.067.36-.145.707-.25 1.067-.104.346-.302 1.066-.911 1.361a1.23 1.23 0 01-.509.116c-1.028 0-.915-1.078-.867-1.476.03-.295.073-.59.125-.873.048-.258.13-.617.246-1.04.102-.335.301-.99.886-1.298.184-.09.37-.129.563-.129.989 0 .886 1.026.837 1.425a9.153 9.153 0 01-.12.847zm2.101.024c.106-.564.306-1.63-.186-2.361-.6-.912-1.948-.912-2.333-.91-.45 0-1.723.013-2.672.759-1.078.822-1.322 2.119-1.447 2.786-.235 1.26-.2 2.582 1.305 3.043.437.141.919.166 1.381.166.437 0 1.773-.001 2.75-.901.869-.796 1.092-1.991 1.202-2.582zm2.59 3.313h-2.08l1.202-6.42 2.08-.002-.213 1.142c.166-.269.312-.5.632-.77.379-.308.808-.476 1.206-.476.244 0 .362.051.518.115l-.317 1.695c-.185-.116-.485-.295-.896-.295-.09 0-.31.013-.589.129-.675.309-.79.861-.865 1.26z"/>
  <path d="M128.844 14.313l-.574 3.07c-.137.732-.244 1.296.489 1.296.217 0 .392-.04.527-.078l-.209 1.118c-.31.078-.797.206-1.426.206-1.951.001-1.705-1.244-1.498-2.285l.624-3.326-.81.002.172-.912h.809l.235-1.26 2.145-.412-.313 1.67 1.078-.001-.17.912zm5.233 3.322c-.058.308-.148.719-.524 1.014-.316.245-.677.258-.832.258-.36 0-.656-.128-.713-.577-.012-.142 0-.283.028-.424.127-.68.63-.963 1.152-1.08.256-.063.425-.077 1.065-.128zm.332-1.772l-1.033.103c-1.155.13-1.842.232-2.39.554a2.222 2.222 0 00-1.074 1.555c-.118.629-.015 1.104.19 1.386.271.397.798.539 1.323.539a3.379 3.379 0 002.3-.901c-.142.694.079.745.57.73h1.708l.015-.076c-.08-.064-.144-.129-.145-.398-.005-.245.039-.476.103-.823l.578-3.082c.093-.5.236-1.194-.238-1.682-.247-.256-.636-.372-1.023-.435a6.928 6.928 0 00-1.152-.09c-1.154.002-2.478.208-3.147 1.107-.29.385-.351.783-.407 1.079l1.99-.001c.06-.258.141-.617.395-.874.129-.141.412-.347.86-.347.117-.001.54-.001.692.359.076.205.04.474-.02.784zm5.928-1.558l-.575 3.07c-.137.732-.243 1.296.49 1.296.217 0 .391-.04.527-.078l-.21 1.118c-.31.077-.795.206-1.424.206-1.952.001-1.706-1.244-1.499-2.285l.623-3.326-.809.002.172-.912.808-.001.236-1.259 2.145-.412-.313 1.67 1.078-.001-.17.91zm3.114 5.519l-2.08.001 1.202-6.42 2.08-.001zm1.398-7.396h-2.094l.301-1.604 2.093-.002zm4.864 4.052a10.98 10.98 0 01-.25 1.067c-.104.347-.304 1.067-.911 1.362a1.216 1.216 0 01-.51.116c-1.027 0-.914-1.078-.866-1.476a10.6 10.6 0 01.372-1.913c.1-.334.3-.99.884-1.298.184-.09.37-.129.563-.129.989 0 .886 1.027.839 1.425a9.765 9.765 0 01-.121.847zm2.101.026c.107-.565.306-1.632-.186-2.363-.6-.91-1.949-.91-2.334-.91-.45 0-1.723.014-2.671.76-1.078.822-1.322 2.119-1.447 2.787-.235 1.259-.202 2.581 1.305 3.041.435.142.919.167 1.38.167.438 0 1.773-.002 2.75-.901.868-.796 1.093-1.99 1.203-2.581zm6.622 3.307l-2.067.002.733-3.917c.049-.256.087-.462.102-.68.026-.205.087-.873-.71-.873-.205 0-.395.052-.52.103-.585.245-.68.681-.758 1.028l-.812 4.34-2.068.002 1.203-6.42 2.068-.002-.137.732c.539-.411 1.278-.861 2.305-.862.86-.001 1.222.333 1.363.538.327.449.217 1.04.143 1.502zM77.161 30.62h-2.35l1.698-9.064 2.35-.003zm7.627-.006l-2.067.002.734-3.917c.048-.257.086-.463.101-.68.026-.206.087-.874-.709-.873a1.42 1.42 0 00-.52.103c-.585.244-.68.68-.757 1.028l-.814 4.34-2.067.002 1.203-6.422h2.067l-.137.731c.54-.41 1.278-.86 2.306-.862.86 0 1.22.333 1.363.539.326.449.216 1.04.143 1.501zm3.676-2.622c-.465-.128-.98-.256-1.312-.603-.375-.398-.385-.898-.313-1.283.069-.36.2-.72.44-1.04.66-.848 1.723-1.042 2.647-1.043.373 0 .74.026 1.087.09.31.064.614.154.85.333.596.45.476 1.091.412 1.502l-1.806-.024c.069-.296.17-.976-.69-.976-.552 0-.934.321-1.005.708-.1.526.387.667.935.833l.49.116c.49.127 1.006.255 1.331.577.447.423.456 1 .375 1.424-.067.36-.211.72-.439 1.04-.602.822-1.572 1.13-2.856 1.132a5.505 5.505 0 01-1.137-.102 2.045 2.045 0 01-.862-.333c-.687-.513-.482-1.334-.409-1.656l1.906.037c-.036.193-.118.565.088.835.13.128.363.256.748.256.668 0 .971-.386 1.043-.77.116-.617-.36-.745-.887-.886zm7.375-2.906l-.576 3.069c-.136.731-.242 1.297.49 1.296.218 0 .393-.04.528-.078l-.21 1.118c-.309.077-.795.206-1.425.206-1.952.001-1.706-1.244-1.498-2.284l.624-3.327-.81.001.172-.912h.808l.236-1.259 2.144-.412-.311 1.67h1.078l-.17.91zm3.113 5.519h-2.08l1.203-6.42 2.08-.002zm1.399-7.398l-2.093.002.3-1.606h2.093zm3.244 1.873l-.575 3.07c-.137.73-.243 1.296.49 1.296.218 0 .392-.039.527-.078l-.209 1.117c-.31.077-.796.206-1.425.207-1.952 0-1.706-1.245-1.498-2.284l.623-3.326h-.81l.17-.912h.81l.236-1.26 2.145-.412-.313 1.67h1.079l-.171.91zm7.095 5.515l-2.068.002.137-.731c-.273.218-1.111.86-2.32.861-.383 0-.654-.063-.879-.166-.866-.384-.725-1.27-.607-1.964l.826-4.418 2.067-.001-.727 3.891c-.14.746-.299 1.593.625 1.591.334 0 .682-.14.903-.36.25-.243.306-.539.365-.783l.813-4.34 2.067-.002zm4.667-5.523l-.575 3.069c-.137.732-.243 1.296.49 1.296.218 0 .392-.039.528-.077l-.21 1.117c-.31.077-.796.206-1.425.207-1.952.002-1.706-1.244-1.498-2.285l.622-3.326h-.808l.17-.911h.81l.236-1.259 2.143-.412-.312 1.67 1.079-.002-.17.912zm3.675 1.563c.095-.372.4-1.656 1.466-1.657.95 0 .815 1.065.704 1.656zm1.84 1.9c-.05.192-.146.642-.472.937-.2.18-.506.31-.828.31-1.129 0-.927-1.285-.732-2.26l4.238-.003c.073-.321.19-.81.19-1.425.002-.835-.18-1.516-1.224-1.9a4.222 4.222 0 00-1.338-.191c-3.3.001-3.803 2.622-3.965 3.482-.092.5-.339 1.81.377 2.58.376.398 1.103.693 2.234.692.525 0 1.516-.078 2.276-.502.935-.54 1.16-1.323 1.273-1.721zM120.2 9.14h-2.33l-.3-2.978h-2.563l-1.449 2.977h-2.29L115.895 0h3.327zm-2.713-4.35l-.223-2.46a2.998 2.998 0 00-.023-.22 2.11 2.11 0 01-.024-.343c0-.065-.003-.144-.01-.24-.038.087-.068.16-.095.22l-.072.17a3.374 3.374 0 01-.073.155 3.515 3.515 0 00-.085.168l-1.26 2.55zm10.803.242l-.12.711c-.069.302-.137.562-.205.78a3.094 3.094 0 01-.236.57 2.07 2.07 0 01-.31.424c-.116.12-.253.238-.41.35l.768 1.289h-2.069l-.248-.487a5.146 5.146 0 01-.325.193 3.13 3.13 0 01-.439.192 3.89 3.89 0 01-.594.152 4.39 4.39 0 01-.78.062c-.392 0-.731-.043-1.016-.13a2.627 2.627 0 01-.718-.327 1.98 1.98 0 01-.476-.447 2.188 2.188 0 01-.427-.938 3.015 3.015 0 01-.047-.327 2.291 2.291 0 01.083-.842c.077-.244.187-.457.328-.638.141-.18.306-.337.492-.469.187-.131.378-.243.57-.333.194-.09.383-.164.567-.22.185-.057.343-.104.476-.142a8.096 8.096 0 01-.281-.554 2.18 2.18 0 01-.185-.78c-.026-.368.028-.685.159-.948.133-.264.315-.479.55-.644.232-.166.5-.287.803-.362.304-.075.615-.113.932-.113.24 0 .494.026.761.08.267.052.512.15.733.293.228.143.41.322.546.537.135.214.211.442.228.684.02.286-.029.529-.146.728a1.71 1.71 0 01-.49.52 3.424 3.424 0 01-.73.384c-.278.11-.569.22-.869.333l1.202 2.147c.052-.098.097-.186.132-.265.036-.08.069-.166.096-.26a6.134 6.134 0 00.173-.831l.065-.372h1.457zm-4.81.045c-.087.038-.198.086-.329.147-.13.06-.253.145-.366.254a1.309 1.309 0 00-.282.418c-.074.17-.103.382-.085.638.013.18.055.371.125.57a1.773 1.773 0 00.859.978c.215.113.47.17.762.17.25 0 .443-.03.582-.09a3.91 3.91 0 00.35-.17zm1.361-1.062c.088-.038.2-.089.34-.153a1.473 1.473 0 00.691-.683c.082-.166.115-.373.098-.622-.019-.264-.099-.451-.243-.564a.765.765 0 00-.486-.17c-.263 0-.466.098-.607.293-.14.196-.2.445-.179.747.016.218.062.421.138.61.078.188.16.369.248.542zm14.072 5.125H136.7l1.108-5.813.085-.46c.024-.133.052-.27.082-.407.029-.138.057-.283.085-.434.029-.15.065-.334.11-.55a14.6 14.6 0 01-.184.414c-.056.121-.113.244-.169.369l-.179.395c-.063.138-.14.298-.232.479l-2.816 6.006h-1.85l-.576-5.812a16.812 16.812 0 00-.036-.44c-.014-.13-.025-.259-.035-.389l-.03-.426-.04-.57a27.24 27.24 0 00-.091.537 7.14 7.14 0 01-.076.408c-.025.12-.049.244-.07.369-.021.125-.049.265-.081.42l-1.153 5.903h-2.149L130.223 0h3.443l.473 5.088.025.35c.006.094.01.187.012.278.001.09.004.185.007.284l.007.369a35.742 35.742 0 00.263-.68 4.62 4.62 0 01.127-.31l.185-.408L137.083 0h3.534z"/>
</svg>
